<svg width="230" height="35" viewBox="0 0 230 35" fill="none" xmlns="http://www.w3.org/2000/svg">
<path d="M22.4887 15.0221C20.5097 13.6283 17.4308 12.6296 13.2459 12.0164C10.6965 11.6719 8.91914 11.2642 7.91072 10.787C6.9023 10.3097 6.39809 9.61442 6.39809 8.69785C6.39809 7.59166 6.94957 6.68458 8.05253 5.97977C9.15549 5.27497 10.6019 4.92099 12.3887 4.92099C14.1755 4.92099 15.83 5.30341 17.3521 6.06511C18.1525 6.4665 18.9025 6.94058 19.6084 7.49052C20.7051 8.34387 22.2776 8.19532 23.2167 7.16814C24.3102 5.97345 24.1179 4.0708 22.7912 3.14475C21.8112 2.45891 20.7492 1.86789 19.6053 1.37168C17.497 0.458281 15.0705 0 12.332 0C9.97168 0 7.88236 0.382427 6.05459 1.14412C4.22998 1.90898 2.78353 2.97408 1.71838 4.34893C0.653237 5.72377 0.120664 7.32617 0.120664 9.15613C0.120664 11.4855 1.06291 13.3059 2.94424 14.6207C4.82873 15.9355 7.8603 16.9027 12.0452 17.5095C14.7081 17.854 16.5611 18.3218 17.6073 18.9128C18.6536 19.5038 19.1767 20.335 19.1767 21.4033C19.1767 22.5853 18.5874 23.5493 17.4088 24.292C16.2302 25.0348 14.6514 25.4077 12.6724 25.4077C10.6933 25.4077 8.87817 25.0253 7.11028 24.2636C6.09871 23.8274 5.16592 23.2996 4.31192 22.677C3.21841 21.8805 1.72153 21.9785 0.8045 22.9709L0.697355 23.0879C-0.389849 24.2636 -0.178711 26.1346 1.14169 27.0417C2.25726 27.8066 3.47682 28.4545 4.80352 28.9886C7.12289 29.9242 9.6723 30.3919 12.4486 30.3919C15.0358 30.3919 17.2985 30 19.2397 29.2194C21.1809 28.4387 22.6999 27.342 23.806 25.9292C24.9089 24.5196 25.4604 22.8793 25.4604 21.0082C25.4604 18.4134 24.4709 16.4223 22.495 15.0284L22.4887 15.0221Z" fill="#FFFCF5"/>
<path d="M51.9095 1.55499C49.8264 0.45196 47.4314 0 45.0932 0C42.2034 0 39.5973 0.647914 37.2779 1.9469C34.9585 3.24589 33.1308 5.03793 31.8009 7.32617C30.4679 9.61442 29.803 12.2472 29.803 15.2244C29.803 18.2017 30.4963 20.7743 31.886 23.0626C33.2757 25.3508 35.1949 27.146 37.6498 28.4419C40.1046 29.7377 42.9282 30.3888 46.1236 30.3888C48.8243 30.3888 51.276 29.8926 53.4851 28.9001C54.6921 28.3565 55.7919 27.7054 56.7814 26.9469C57.9411 26.0556 58.3255 24.4121 57.4967 23.2048C56.5923 21.89 54.7835 21.6561 53.608 22.6549C51.5754 24.3774 49.1773 25.2402 46.4104 25.2402C44.4314 25.2402 42.6919 24.8293 41.1887 24.0108C39.6855 23.1922 38.5069 22.0164 37.6498 20.4931C37.1928 19.6808 36.8619 18.7864 36.6508 17.8224H56.7751C58.3287 17.8224 59.5892 16.5582 59.5892 15C59.5892 12.3072 58.8959 9.60493 57.5976 7.25032C56.2866 4.87674 54.3643 2.85714 51.9158 1.56132L51.9095 1.55499ZM36.5405 12.8761C36.7107 11.7478 37.0037 10.7175 37.4481 9.81353C38.1697 8.34387 39.1876 7.19975 40.5017 6.38117C41.8126 5.56258 43.3253 5.15171 45.0364 5.15171C46.7476 5.15171 48.0964 5.54362 49.3159 6.32428C50.5323 7.10809 51.4935 8.21429 52.1962 9.64286C52.6721 10.61 52.9715 11.6941 53.1259 12.8761H36.5405Z" fill="#FFFCF5"/>
<path d="M186.754 1.55499C184.671 0.45196 182.276 0 179.938 0C177.048 0 174.442 0.647914 172.123 1.9469C169.803 3.24589 167.976 5.03793 166.646 7.32617C165.313 9.61442 164.648 12.2472 164.648 15.2244C164.648 18.2017 165.341 20.7743 166.731 23.0626C168.12 25.3508 170.04 27.146 172.494 28.4419C174.949 29.7377 177.773 30.3888 180.968 30.3888C183.669 30.3888 186.121 29.8926 188.33 28.9001C189.537 28.3565 190.637 27.7054 191.626 26.9469C192.786 26.0556 193.17 24.4121 192.341 23.2048C191.437 21.89 189.628 21.6561 188.453 22.6549C186.42 24.3774 184.022 25.2402 181.255 25.2402C179.276 25.2402 177.537 24.8293 176.033 24.0108C174.53 23.1922 173.352 22.0164 172.494 20.4931C172.038 19.6808 171.707 18.7864 171.496 17.8224H191.62C193.173 17.8224 194.434 16.5582 194.434 15C194.434 12.3072 193.741 9.60493 192.442 7.25032C191.131 4.87674 189.209 2.85714 186.761 1.56132L186.754 1.55499ZM171.385 12.8761C171.555 11.7478 171.848 10.7175 172.293 9.81353C173.014 8.34387 174.032 7.19975 175.346 6.38117C176.657 5.56258 178.17 5.15171 179.881 5.15171C181.592 5.15171 182.941 5.54362 184.161 6.32428C185.377 7.10809 186.338 8.21429 187.041 9.64286C187.517 10.61 187.816 11.6941 187.971 12.8761H171.385Z" fill="#FFFCF5"/>
<path d="M227.848 7.32617C226.537 5.03793 224.709 3.24589 222.371 1.9469C220.032 0.651075 217.338 0 214.297 0C211.256 0 208.618 0.647914 206.28 1.9469C203.942 3.24589 202.104 5.03793 200.775 7.32617C199.442 9.61442 198.777 12.2282 198.777 15.1675C198.777 18.1068 199.442 20.7743 200.775 23.0626C202.104 25.3508 203.942 27.146 206.28 28.4419C208.618 29.7377 211.29 30.3888 214.297 30.3888C217.303 30.3888 220.032 29.7408 222.371 28.4419C224.709 27.146 226.537 25.3508 227.848 23.0626C229.158 20.7743 229.817 18.1606 229.817 15.2244C229.817 12.2882 229.162 9.61758 227.848 7.32617ZM222.084 20.2845C221.343 21.7541 220.306 22.9077 218.973 23.7484C217.64 24.5891 216.103 25.0063 214.35 25.0063C212.598 25.0063 211.051 24.586 209.699 23.7484C208.347 22.9109 207.301 21.7541 206.56 20.2845C205.82 18.818 205.448 17.1081 205.448 15.1644C205.448 13.2206 205.82 11.5582 206.56 10.0727C207.301 8.58407 208.347 7.43047 209.699 6.61189C211.048 5.7933 212.598 5.38243 214.35 5.38243C216.103 5.38243 217.64 5.80278 218.973 6.64033C220.303 7.48104 221.34 8.63464 222.084 10.1011C222.824 11.5708 223.196 13.2585 223.196 15.1644C223.196 17.0702 222.824 18.818 222.084 20.2845Z" fill="#FFFCF5"/>
<path d="M111.075 35C110.543 35 109.998 34.9305 109.456 34.7883C106.689 34.0613 104.829 31.6435 104.829 28.7737V6.34642C104.829 6.21368 104.829 5.93871 104.436 5.83441C104.042 5.73011 103.909 5.97032 103.843 6.08726L91.9753 27.2029C90.5698 29.7029 87.7682 30.8913 85.0014 30.1644C82.2345 29.4375 80.3753 27.0196 80.3753 24.1498V6.34642C80.3753 6.21368 80.3753 5.93871 79.9813 5.83441C79.5874 5.73011 79.4551 5.97032 79.3889 6.08726L67.0893 27.9678C66.3204 29.3363 64.5903 29.8199 63.2258 29.0487C61.8613 28.2775 61.3791 26.5424 62.148 25.1739L74.4508 3.29332C75.8563 0.793323 78.6578 -0.395047 81.4247 0.331881C84.1915 1.05881 86.0508 3.47664 86.0508 6.34642V24.1498C86.0508 24.2826 86.0508 24.5576 86.4447 24.6619C86.8386 24.7661 86.9741 24.5259 87.0371 24.409L98.905 3.29332C100.31 0.793323 103.112 -0.395047 105.879 0.331881C108.646 1.05881 110.505 3.47664 110.505 6.34642V28.7737C110.505 28.9065 110.505 29.1814 110.899 29.2857C111.22 29.3711 111.368 29.2257 111.447 29.1056L123.255 3.4956C123.287 3.42607 123.321 3.3597 123.359 3.29332C124.765 0.793323 127.566 -0.395047 130.333 0.331881C133.1 1.05881 134.959 3.47664 134.959 6.34642V24.1498C134.959 24.2826 134.959 24.5576 135.353 24.6619C135.744 24.7661 135.879 24.5259 135.946 24.409L147.813 3.29332C149.219 0.793323 152.02 -0.395047 154.787 0.331881C157.554 1.05881 159.413 3.47664 159.413 6.34642V27.2883C159.413 28.8591 158.143 30.1328 156.577 30.1328C155.011 30.1328 153.741 28.8591 153.741 27.2883V6.34642C153.741 6.21368 153.741 5.93871 153.347 5.83441C152.956 5.73011 152.821 5.97032 152.755 6.08726L140.887 27.2029C139.481 29.7029 136.677 30.8913 133.913 30.1644C131.146 29.4375 129.287 27.0196 129.287 24.1498V6.34642C129.287 6.21368 129.287 5.93871 128.893 5.83441C128.571 5.74908 128.423 5.89446 128.345 6.01456L116.537 31.6246C116.505 31.6941 116.47 31.7605 116.433 31.8268C115.304 33.8369 113.269 35 111.079 35H111.075Z" fill="#FFFCF5"/>
</svg>
