<svg width="85" height="40" viewBox="0 0 85 40" fill="none" xmlns="http://www.w3.org/2000/svg">
<g clip-path="url(#clip0_129_771)">
<path d="M1.99669 1.98116H38.3102V38.0123H1.99669V1.98116ZM0 0V39.9935H40.3036V0H0Z" fill="#93328E"/>
<path d="M25.8948 10.4614H24.34V18.9479H25.8948V10.4614Z" fill="#93328E"/>
<path d="M25.8948 21.1401H24.34V29.6234H25.8948V21.1401Z" fill="#93328E"/>
<path d="M29.0731 18.9478L31.5444 15.8624L34.019 18.9478H35.8749L32.4707 14.7062L35.8717 10.4678H34.0157L31.5444 13.5532L29.0698 10.4678H27.2172L30.6181 14.7062L27.2237 18.9478H29.0731Z" fill="#93328E"/>
<path d="M22.8801 21.1401H21.0242L18.5529 24.2256L16.0783 21.1401H14.2289L17.6298 25.3818L14.2354 29.6202H16.0815L18.5561 26.538L21.0307 29.6202H22.8834L19.4792 25.3818L22.8801 21.1401Z" fill="#93328E"/>
<path d="M21.1682 17.7039C21.9767 16.9017 22.4218 15.8364 22.4218 14.7029C22.4218 13.5694 21.9767 12.5074 21.1682 11.7052C20.3597 10.903 19.2861 10.458 18.147 10.458H14.9686V18.9445H18.147C19.2861 18.9445 20.3597 18.5028 21.1682 17.7006V17.7039ZM18.0815 11.8221C18.8933 11.8221 19.5774 12.1274 20.1698 12.7542C20.6412 13.2511 20.8703 13.8877 20.8703 14.7061C20.8703 15.5246 20.6412 16.1644 20.1698 16.6613C19.5774 17.2881 18.8933 17.5934 18.0815 17.5934H16.5234V11.8221H18.0815Z" fill="#93328E"/>
<path d="M27.7408 22.5303H30.7686V29.6203H32.3201V22.5303H35.3512V21.1338H27.7408V22.5303Z" fill="#93328E"/>
<path d="M85 39.9999V0.00634766H44.6931V39.9999H85Z" fill="#93328E"/>
<path d="M61.9562 26.7363H62.5912V26.2427H60.7352V26.7363H61.3604V28.9416H60.7352V29.432H62.5912V28.9416H61.9562V26.7363Z" fill="white"/>
<path d="M50.8075 29.4285L49.4163 27.2394V29.4317H48.8435V26.2456H49.4622L50.8369 28.4021V26.2456H51.4097V29.4317H50.8075V29.4285Z" fill="white"/>
<path d="M55.1347 29.432L54.9252 28.8182H53.6454L53.4425 29.4288H52.8533L53.9793 26.2427H54.6176L55.7468 29.4288H55.1347V29.432ZM54.287 26.9539L53.832 28.2985H54.7452L54.287 26.9539Z" fill="white"/>
<path d="M58.1396 26.7815V29.4317H57.557V26.7815H56.5652V26.2456H59.1314V26.7847H58.1396V26.7815Z" fill="white"/>
<path d="M65.5829 29.4288H64.9414L63.8776 26.2427H64.4995L65.2785 28.672L66.051 26.2427H66.6369L65.5862 29.4288H65.5829Z" fill="white"/>
<path d="M68.2474 29.4317V26.2456H70.5322L70.5387 26.7718H68.8333V27.5123H70.2212V28.0319H68.8333V28.9056H70.5322L70.5387 29.4317H68.2474Z" fill="white"/>
<path d="M53.5571 11.0622H54.1037V10.5718H52.418V11.0622H52.9646V13.2675H52.418V13.7611H54.1037V13.2675H53.5571V11.0622Z" fill="white"/>
<path d="M60.1133 11.0622H60.66V10.5718H58.9742V11.0622H59.5176V13.2675H58.9742V13.7611H60.66V13.2675H60.1133V11.0622Z" fill="white"/>
<path d="M51.1021 13.4169C50.8893 13.6377 50.5685 13.7611 50.2019 13.7579H48.9515V10.5718H50.2019C50.5685 10.5718 50.8893 10.6952 51.1021 10.9128C51.4327 11.2538 51.4785 11.7247 51.4785 12.1632C51.4785 12.6049 51.4327 13.0791 51.1021 13.4169ZM50.6569 11.2733C50.5489 11.1661 50.3885 11.0947 50.2019 11.0947H49.5374V13.2415H50.2019C50.3885 13.2415 50.5489 13.1668 50.6569 13.0596C50.8795 12.8355 50.8828 12.462 50.8893 12.1665C50.8893 11.8741 50.8795 11.5039 50.6569 11.2766V11.2733Z" fill="white"/>
<path d="M57.4457 13.7579L57.3802 13.4071C57.2853 13.5955 56.9776 13.8131 56.575 13.8196C56.2051 13.8196 55.8712 13.7254 55.6192 13.4624C55.2821 13.1181 55.2035 12.6926 55.2035 12.1697C55.2035 11.6468 55.269 11.2344 55.6192 10.8869C55.8647 10.6465 56.228 10.5166 56.575 10.5166C56.9711 10.5166 57.3082 10.6595 57.5275 10.8804C57.6846 11.0395 57.7992 11.2441 57.8188 11.5202H57.2198C57.2133 11.3935 57.1511 11.3091 57.0791 11.2311C56.9711 11.098 56.791 11.0363 56.5717 11.0395C56.3884 11.0395 56.1691 11.1174 56.0447 11.2539C55.8254 11.4812 55.796 11.8742 55.796 12.1697C55.796 12.4653 55.8287 12.868 56.0513 13.0986C56.1757 13.235 56.3819 13.3 56.5684 13.3C56.7812 13.3 56.9416 13.2253 57.0496 13.1148C57.2231 12.933 57.2558 12.7381 57.2558 12.4945H56.4899V12.0106H57.8221V13.7547H57.4424L57.4457 13.7579Z" fill="white"/>
<path d="M63.2098 11.1142V13.7579H62.6272V11.1142H61.6747V10.5718H64.1591V11.1142H63.2098Z" fill="white"/>
<path d="M66.8104 13.7579L66.6009 13.1473H65.3244L65.1181 13.7579H64.5322L65.6582 10.5718H66.2965L67.4258 13.7611H66.817L66.8104 13.7579ZM65.9659 11.283L65.5077 12.6244H66.4242L65.9692 11.283H65.9659Z" fill="white"/>
<path d="M68.4373 13.7579V10.5718H69.0232V13.209H70.5125V13.7579H68.4373Z" fill="white"/>
<path d="M50.8631 21.2702C50.6209 21.5138 50.287 21.6469 49.9433 21.6469C49.5964 21.6469 49.2789 21.5333 49.0334 21.2962C48.6831 20.9487 48.634 20.52 48.634 20.0003C48.634 19.4807 48.6831 19.0519 49.0334 18.7077C49.2789 18.4673 49.5964 18.3472 49.9433 18.3472C50.2903 18.3472 50.6209 18.4738 50.8631 18.7174C51.0464 18.9025 51.1446 19.1559 51.1708 19.4092H50.5718C50.5587 19.2695 50.5129 19.1689 50.4278 19.0682C50.323 18.9383 50.1463 18.8733 49.9466 18.8733C49.76 18.8733 49.58 18.948 49.4523 19.0812C49.233 19.3085 49.233 19.7048 49.233 19.9971C49.233 20.2894 49.233 20.6823 49.4523 20.9162C49.58 21.0493 49.76 21.1273 49.9466 21.124C50.1463 21.124 50.3263 21.0558 50.4278 20.9259C50.5096 20.8252 50.5587 20.7148 50.5718 20.5752H51.1708C51.1446 20.8252 51.0464 21.0786 50.8631 21.2702Z" fill="white"/>
<path d="M54.012 21.2895C53.7632 21.5299 53.4326 21.6468 53.0824 21.6468C52.7321 21.6468 52.4048 21.5299 52.1626 21.2895C51.8123 20.942 51.7534 20.5198 51.7534 19.9969C51.7534 19.474 51.8123 19.0485 52.1626 18.7043C52.4081 18.4639 52.7452 18.3438 53.0824 18.3438C53.4195 18.3438 53.7632 18.4607 54.012 18.701C54.3557 19.0518 54.4146 19.4772 54.4146 19.9969C54.4146 20.5165 54.3557 20.9387 54.012 21.2895ZM53.5963 19.0842C53.4686 18.9511 53.2722 18.8764 53.0824 18.8764C52.8925 18.8764 52.7027 18.9543 52.5783 19.0842C52.3557 19.3116 52.3459 19.7078 52.3459 20.0001C52.3459 20.2924 52.3557 20.6822 52.5783 20.9128C52.7027 21.0459 52.9023 21.1239 53.0824 21.1239C53.2722 21.1239 53.4653 21.0459 53.5963 20.916C53.8156 20.6822 53.8221 20.2957 53.8221 20.0001C53.8254 19.7111 53.8156 19.3116 53.5963 19.0842Z" fill="white"/>
<path d="M57.1674 21.5881L55.7763 19.4024V21.5946H55.2035V18.4053H55.8254L57.1969 20.5651V18.4085H57.7697V21.5946H57.1674V21.5881Z" fill="white"/>
<path d="M59.9758 18.9415V21.5884H59.3932V18.9415H58.4407V18.4023H60.9218V18.9415H59.9758Z" fill="white"/>
<path d="M61.5962 21.5946V18.4053H63.8842V18.9314H62.1821V19.6719H63.5994V20.1948H62.1821V21.0652H63.8842V21.5979H61.5962V21.5946Z" fill="white"/>
<path d="M66.6632 21.5946L65.2753 19.4024V21.5946H64.6992V18.4053H65.3211L66.6926 20.5651V18.4053H67.2687V21.5914H66.6664L66.6632 21.5946Z" fill="white"/>
<path d="M69.4912 18.9446V21.5948H68.9118V18.9446H67.9561V18.4087H70.447V18.9446H69.4945H69.4912Z" fill="white"/>
</g>
<defs>
<clipPath id="clip0_129_771">
<rect width="85" height="40" fill="white"/>
</clipPath>
</defs>
</svg>
