<svg width="111" height="40" viewBox="0 0 111 40" fill="none" xmlns="http://www.w3.org/2000/svg">
<g clip-path="url(#clip0_129_759)">
<path d="M33.8185 11.2187C37.3082 11.2187 40.152 14.0964 40.152 17.6381C40.152 21.1799 37.3128 24.0576 33.8185 24.0576C30.3242 24.0576 27.4851 21.1799 27.4851 17.6381C27.4851 14.0964 30.3242 11.2187 33.8185 11.2187ZM33.8185 7.56396C28.3308 7.56396 23.8793 12.0759 23.8793 17.6381C23.8793 23.2004 28.3308 27.7123 33.8185 27.7123C39.3063 27.7123 43.7578 23.2004 43.7578 17.6381C43.7578 12.0759 39.3063 7.56396 33.8185 7.56396Z" fill="#2F373E"/>
<path d="M11.5098 11.2187C14.9995 11.2187 17.8432 14.0964 17.8432 17.6381C17.8432 21.1799 15.0041 24.0576 11.5098 24.0576C8.01551 24.0576 5.17638 21.1799 5.17638 17.6381C5.17638 14.0964 8.01551 11.2187 11.5098 11.2187ZM11.5098 7.56396C6.02208 7.56396 1.57056 12.0759 1.57056 17.6381C1.57056 23.2004 6.02208 27.7123 11.5098 27.7123C16.9975 27.7123 21.4491 23.2004 21.4491 17.6381C21.4491 12.0759 16.9975 7.56396 11.5098 7.56396Z" fill="#2F373E"/>
<path d="M19.7204 32.2525C17.8292 30.4393 14.925 29.3843 11.5097 29.3843C8.09441 29.3843 5.19023 30.4393 3.29903 32.2525C1.35207 34.1223 -0.00476074 36.7645 -0.00476074 40.0001H3.59642C3.59642 38.0738 4.41888 36.2323 5.68278 35.0172C6.94668 33.7973 8.78212 33.0438 11.5051 33.0438C14.228 33.0438 16.0635 33.802 17.3274 35.0172C18.5913 36.237 19.4137 38.0738 19.4137 40.0001H23.0149C23.0149 36.7645 21.6581 34.1223 19.7111 32.2525" fill="#2F373E"/>
<path d="M68.9568 8.10547H65.3882V27.1565H68.9568V8.10547Z" fill="white"/>
<path d="M67.1725 0C68.4178 0 69.4308 1.02673 69.4308 2.28894C69.4308 3.55116 68.4178 4.57789 67.1725 4.57789C65.9272 4.57789 64.9142 3.55116 64.9142 2.28894C64.9142 1.02673 65.9272 0 67.1725 0Z" fill="white"/>
<path d="M83.7286 27.1659L91.1307 8.10547H87.2786L81.7166 22.8093L76.1498 8.10547H72.2977L79.6999 27.1659H83.7286Z" fill="white"/>
<path d="M111 17.638C111.028 14.8827 110.164 12.3395 108.347 10.4791C106.548 8.6376 104.207 7.625 101.558 7.625C96.1074 7.625 91.6744 12.1181 91.6744 17.638C91.6744 23.1578 96.2375 27.4955 102.06 27.4955H104.281V23.869H102.06C99.0627 23.869 96.6371 22.4231 95.7171 19.8327H110.717C110.888 19.0886 110.986 18.4151 110.995 17.6332M95.4568 16.1921C96.0377 13.239 98.6259 11.1573 101.558 11.1573C104.49 11.1573 106.902 13.1401 107.324 16.1921H95.4568Z" fill="white"/>
<path d="M54.3151 23.4732C52.3775 23.4732 51.6061 22.4606 51.6061 20.5814V0.192871H47.8284V20.5861C47.8284 22.6019 48.3441 24.4199 49.4965 25.5691C50.6257 26.6947 52.3682 27.161 54.3151 27.161H62.1309V23.4779H54.3151V23.4732Z" fill="white"/>
<path d="M19.7113 3.67383C20.9566 3.67383 21.9696 4.70056 21.9696 5.96277C21.9696 7.22499 20.9566 8.25172 19.7113 8.25172C18.466 8.25172 17.453 7.22499 17.453 5.96277C17.453 4.70056 18.466 3.67383 19.7113 3.67383Z" fill="#2F373E"/>
</g>
<defs>
<clipPath id="clip0_129_759">
<rect width="111" height="40" fill="white"/>
</clipPath>
</defs>
</svg>
